<?xml version="1.0" encoding="utf-8"?>
<!-- Generator: Adobe Illustrator 24.0.2, SVG Export Plug-In . SVG Version: 6.00 Build 0)  -->
<svg version="1.1" id="Layer_1" xmlns="http://www.w3.org/2000/svg" xmlns:xlink="http://www.w3.org/1999/xlink" x="0px" y="0px"
	 viewBox="0 0 196 33.22" style="enable-background:new 0 0 196 33.22;" xml:space="preserve">
<style type="text/css">
	.st0{fill:#FFFFFF;}
</style>
<g>
	<g>
		<path class="st0" d="M37.96,8l-4.44-4.44c-2.59-2.59-6.82-2.59-9.41,0L21,6.66l-3.1-3.1c-2.6-2.6-6.82-2.59-9.41,0L4.04,8
			c-1.26,1.26-1.95,2.93-1.95,4.71s0.69,3.45,1.95,4.71l12.25,12.25c1.26,1.26,2.92,1.95,4.71,1.95c0.06,0,0.12,0,0.18,0
			c0.4-0.01,0.8-0.06,1.24-0.15c0.11-0.02,0.23-0.05,0.39-0.1c0.25-0.07,0.5-0.16,0.82-0.29c0.09-0.04,0.19-0.08,0.28-0.13l0.1-0.05
			c0.1-0.05,0.19-0.1,0.34-0.18c0.11-0.07,0.22-0.13,0.4-0.25c0.09-0.06,0.17-0.12,0.26-0.18l0.1-0.08c0.08-0.06,0.15-0.12,0.24-0.2
			l0.07-0.06c0.1-0.09,0.2-0.18,0.29-0.27l12.25-12.25C40.55,14.82,40.55,10.6,37.96,8z M18.48,27.48L6.23,15.22
			c-0.67-0.67-1.04-1.56-1.04-2.52c0-0.95,0.37-1.85,1.04-2.52l4.44-4.44c0.69-0.69,1.61-1.04,2.52-1.04c0.91,0,1.82,0.35,2.52,1.04
			L26.66,16.7c0.24,0.24,0.55,0.36,0.88,0.36h0.86c0.51,0,0.95-0.29,1.15-0.77c0.2-0.47,0.09-0.99-0.27-1.36l-6.09-6.09l3.1-3.11
			c1.39-1.38,3.65-1.39,5.03,0l4.44,4.44c0.67,0.67,1.04,1.56,1.04,2.52c0,0.95-0.37,1.85-1.04,2.52L23.51,27.48
			c-0.05,0.05-0.11,0.1-0.21,0.19l-0.18,0.14c-0.06,0.04-0.12,0.09-0.2,0.14c-0.06,0.04-0.11,0.07-0.21,0.13l-0.19,0.1
			c-0.07,0.03-0.13,0.06-0.24,0.1c-0.06,0.02-0.12,0.04-0.21,0.08c-0.07,0.02-0.14,0.04-0.21,0.06
			C20.65,28.71,19.36,28.35,18.48,27.48z M24.87,29.91L24.87,29.91L24.87,29.91L24.87,29.91z"/>
		<g>
			<path class="st0" d="M114.92,3.43h-2.31c-0.09,0-0.17,0.08-0.17,0.17v7.65c0,0.16-0.21,0.23-0.31,0.1
				c-1.25-1.73-3.02-2.6-5.3-2.6c-5.24,0.19-7.87,3.64-7.87,10.34c0,6.56,3.06,9.88,9.18,9.98c6.17,0.05,9.25-2.89,9.25-8.81V8.6
				V5.9c0-0.68-0.24-1.26-0.73-1.75C116.19,3.67,115.6,3.43,114.92,3.43z M108.22,24.84c-2.82,0-4.2-1.99-4.15-5.97
				c0.15-3.79,1.55-5.68,4.22-5.68c2.67,0,4.05,1.89,4.15,5.68C112.45,22.85,111.04,24.84,108.22,24.84z"/>
			<path class="st0" d="M141.89,3.43h-2.31c-0.09,0-0.17,0.08-0.17,0.17v7.65c0,0.16-0.21,0.23-0.31,0.1
				c-1.25-1.73-3.02-2.6-5.3-2.6c-5.24,0.19-7.87,3.64-7.87,10.34c0,6.56,3.06,9.88,9.18,9.98c6.17,0.05,9.25-2.89,9.25-8.81V8.6
				V5.9c0-0.68-0.24-1.26-0.73-1.75C143.15,3.67,142.57,3.43,141.89,3.43z M135.19,24.84c-2.82,0-4.2-1.99-4.15-5.97
				c0.15-3.79,1.55-5.68,4.22-5.68s4.05,1.89,4.15,5.68C139.41,22.85,138.01,24.84,135.19,24.84z"/>
			<path class="st0" d="M119.33,26.3v2.31c0,0.09,0.08,0.17,0.17,0.17h3.88c0.09,0,0.17-0.08,0.17-0.17v-3.59
				c0-0.09-0.08-0.17-0.17-0.17h-2.45C119.86,24.84,119.33,25.32,119.33,26.3z"/>
			<path class="st0" d="M172.56,5.57c0-0.68-0.24-1.26-0.73-1.75c-0.49-0.49-1.04-0.73-1.68-0.73h-2.38c-0.09,0-0.17,0.08-0.17,0.17
				v21.39c-0.05,2.19,0.86,3.36,2.73,3.53c1.81,0.16,3.49,0.18,5.05,0.05c0.09-0.01,0.16-0.08,0.16-0.17V24.6
				c0-0.09-0.08-0.17-0.17-0.17h-1.36c-0.97,0-1.46-0.41-1.46-1.24V12.27h0.51c0.68,0,1.26-0.23,1.75-0.69
				c0.49-0.46,0.73-1.06,0.73-1.78V8.87c0-0.09-0.08-0.17-0.17-0.17h-2.64c-0.09,0-0.17-0.08-0.17-0.17V5.57z"/>
			<path class="st0" d="M193.06,26.49v-1.14v-0.62c-0.02-0.71-0.32-0.95-1.03-0.78c-0.54,0.15-1.05,0.27-1.59,0.39
				c-1.64,0.39-3.35,0.46-5.02,0.17c-1.66-0.32-2.79-1.27-3.23-2.94c-0.12-0.49-0.22-0.98-0.27-1.49c0.12,0,0.24,0,0.34,0.05
				c1.61,0.29,3.25,0.42,4.89,0.29c1.42-0.1,2.84-0.37,4.11-1.05c1.3-0.64,2.2-1.83,2.47-3.25c0.17-0.88,0.17-1.81-0.02-2.69
				c-0.51-2.2-1.91-3.57-4.01-4.28c-1.17-0.37-2.42-0.51-3.65-0.46c-4.11,0.1-7.24,2.18-8.51,6.29c-0.86,2.72-0.73,5.48,0.1,8.2
				c0.86,2.79,2.81,4.48,5.6,5.24c1.2,0.29,2.45,0.42,3.67,0.37c1.79-0.02,3.58-0.36,5.26-1c0.46-0.18,0.88-0.36,0.88-0.6V26.49z
				 M182.05,16.5c0.17-0.95,0.39-1.88,0.98-2.67c0.91-1.2,2.15-1.54,3.57-1.39c0.12,0,0.22,0.05,0.34,0.05
				c1.71,0.27,2.13,1.64,1.81,2.96c-0.24,0.98-1.05,1.35-1.96,1.52c-0.49,0.1-1,0.15-1.52,0.12c-1-0.02-1.98-0.1-2.96-0.24
				C182.1,16.82,182,16.72,182.05,16.5z"/>
			<path class="st0" d="M97.29,9.03c-6.6,0-10.27,3.18-10.41,9.54V28.6c0,0.09,0.08,0.17,0.17,0.17h4.68c0.09,0,0.17-0.08,0.17-0.17
				V18.5c0-2.86,1.38-4.3,4.15-4.3h1.25c0.23,0,0.42-0.19,0.42-0.42V9.48C97.74,9.23,97.54,9.03,97.29,9.03z"/>
			<path class="st0" d="M65,23.22c-0.55,1.84-1.4,3.22-2.65,4.13c-1.54,1.15-3.36,1.7-5.47,1.66c-5.9,0-8.93-3.36-9.07-10.08
				c0-6.67,3-10.06,9-10.15c4.49,0,7.18,1.93,8.22,5.76c0.17,0.61-0.32,0.58-0.69,0.58c-0.13,0-3.23,0-4.21,0
				c-0.24,0-0.29-0.05-0.47-0.36c-0.63-1.09-1.6-1.66-2.99-1.66c-2.59,0-3.89,1.94-3.89,5.83s1.37,5.81,4.1,5.76
				c1.15,0,2.14-0.46,2.95-1.37c0.48-0.48,1.03-0.72,1.66-0.72c0,0,2.75,0,3.05,0C64.9,22.61,65.16,22.67,65,23.22z"/>
			<path class="st0" d="M74.92,28.73c-1.94,0.15-3.59-0.12-4.95-0.8c-2.04-1.02-3.06-2.82-3.06-5.39c0.05-1.99,0.73-3.5,2.04-4.52
				c1.31-1.02,3.47-1.68,6.48-1.97c2.14-0.24,3.2-0.9,3.2-1.97c-0.1-1.12-1.17-1.68-3.2-1.68c-1.75,0-2.74,0.46-2.99,1.38h-4.95
				c0.58-3.64,3.16-5.46,7.72-5.46c5.44,0,8.21,1.82,8.3,5.46v6.7c0,3.35-1.21,5.68-3.64,6.99C78.56,28.18,76.91,28.59,74.92,28.73z
				 M74.78,19.63c-1.99,0.39-2.99,1.31-2.99,2.77c0.1,1.55,0.92,2.33,2.48,2.33c1.36,0,2.45-0.39,3.28-1.17
				c0.78-0.78,1.17-1.87,1.17-3.28v-1.19c0-0.3-0.3-0.51-0.58-0.4C77.11,19.07,76,19.39,74.78,19.63z"/>
			<path class="st0" d="M155.14,28.73c-1.94,0.15-3.59-0.12-4.95-0.8c-2.04-1.02-3.06-2.82-3.06-5.39c0.05-1.99,0.73-3.5,2.04-4.52
				c1.31-1.02,3.47-1.68,6.48-1.97c2.14-0.24,3.2-0.9,3.2-1.97c-0.1-1.12-1.17-1.68-3.2-1.68c-1.75,0-2.74,0.46-2.99,1.38h-4.95
				c0.58-3.64,3.16-5.46,7.72-5.46c5.44,0,8.21,1.82,8.3,5.46v6.7c0,3.35-1.21,5.68-3.64,6.99
				C158.79,28.18,157.13,28.59,155.14,28.73z M155,19.63c-1.99,0.39-2.99,1.31-2.99,2.77c0.1,1.55,0.92,2.33,2.48,2.33
				c1.36,0,2.45-0.39,3.28-1.17c0.78-0.78,1.17-1.87,1.17-3.28v-1.19c0-0.3-0.3-0.51-0.58-0.4C157.33,19.07,156.22,19.39,155,19.63z
				"/>
		</g>
	</g>
</g>
</svg>
